<?xml version="1.0" standalone="no"?><!DOCTYPE svg PUBLIC "-//W3C//DTD SVG 1.1//EN" "http://www.w3.org/Graphics/SVG/1.1/DTD/svg11.dtd"><svg t="1681973280309" class="icon" viewBox="0 0 1024 1024" version="1.1" xmlns="http://www.w3.org/2000/svg" p-id="3749" xmlns:xlink="http://www.w3.org/1999/xlink" width="200" height="200"><path d="M275.249633 16.445242 95.390056 16.445242c-52.346274 0-94.780898 42.435631-94.780898 94.780898l0 179.859577c0 52.34426 42.435631 94.780898 94.780898 94.780898l179.859577 0c52.345267 0 94.780898-42.436638 94.780898-94.780898L370.030531 111.22614C370.029524 58.879867 327.594899 16.445242 275.249633 16.445242zM269.278881 261.421251c0 13.086317-10.608404 23.695728-23.694721 23.695728L125.055528 285.116979c-13.087324 0-23.695728-10.609411-23.695728-23.695728L101.3598 140.89262c0-13.089337 10.609411-23.695728 23.695728-23.695728L245.58416 117.196892c13.087324 0 23.694721 10.606391 23.694721 23.695728L269.278881 261.421251z" p-id="3750"></path><path d="M913.338715 16.445242l-179.857563 0c-52.346274 0-94.779891 42.435631-94.779891 94.780898l0 179.859577c0 52.34426 42.433618 94.780898 94.779891 94.780898l179.857563 0c52.346274 0 94.780898-42.436638 94.780898-94.780898L1008.119613 111.22614C1008.119613 58.879867 965.685996 16.445242 913.338715 16.445242zM907.371991 261.421251c0 13.086317-10.609411 23.695728-23.695728 23.695728L763.147632 285.116979c-13.087324 0-23.695728-10.609411-23.695728-23.695728L739.451904 140.89262c0-13.089337 10.608404-23.695728 23.695728-23.695728l120.527625 0c13.086317 0 23.695728 10.606391 23.695728 23.695728L907.370984 261.421251z" p-id="3751"></path><path d="M275.249633 654.537345 95.390056 654.537345c-52.346274 0-94.780898 42.434625-94.780898 94.780898l0 179.859577c0 52.34426 42.435631 94.780898 94.780898 94.780898l179.859577 0c52.345267 0 94.780898-42.435631 94.780898-94.780898L370.030531 749.317236C370.029524 696.970963 327.594899 654.537345 275.249633 654.537345zM269.278881 899.511341c0 13.086317-10.608404 23.694721-23.694721 23.694721L125.055528 923.206062c-13.087324 0-23.695728-10.608404-23.695728-23.694721L101.3598 778.983716c0-13.08833 10.609411-23.695728 23.695728-23.695728L245.58416 755.287988c13.087324 0 23.694721 10.607398 23.694721 23.695728L269.278881 899.511341z" p-id="3752"></path><path d="M913.338715 654.537345l-179.857563 0c-52.346274 0-94.779891 42.434625-94.779891 94.780898l0 179.859577c0 52.34426 42.433618 94.780898 94.779891 94.780898l179.857563 0c52.346274 0 94.780898-42.435631 94.780898-94.780898L1008.119613 749.317236C1008.119613 696.970963 965.685996 654.537345 913.338715 654.537345zM907.371991 899.511341c0 13.086317-10.609411 23.694721-23.695728 23.694721L763.147632 923.206062c-13.087324 0-23.695728-10.608404-23.695728-23.694721L739.451904 778.983716c0-13.08833 10.608404-23.695728 23.695728-23.695728l120.527625 0c13.086317 0 23.695728 10.607398 23.695728 23.695728L907.370984 899.511341z" p-id="3753"></path><path d="M739.451904 453.035053 571.53383 453.035053 571.53383 83.611666c0-37.096189-30.073256-67.166424-67.169445-67.166424-37.095182 0-67.166424 30.071242-67.166424 67.166424l0 369.42238L67.778602 453.034046c-37.095182 0-67.167431 30.071242-67.167431 67.166424 0 37.094175 30.072249 67.169445 67.167431 67.169445l671.673301 0c37.095182 0 67.166424-30.07527 67.166424-67.169445C806.618328 483.105288 776.547086 453.035053 739.451904 453.035053z" p-id="3754"></path><path d="M571.53383 956.790281c0 37.095182-30.073256 67.167431-67.169445 67.167431l0 0c-37.095182 0-67.166424-30.072249-67.166424-67.167431L437.197961 721.70679c0-37.097196 30.072249-67.169445 67.166424-67.169445l0 0c37.096189 0 67.169445 30.072249 67.169445 67.169445L571.53383 956.790281z" p-id="3755"></path><path d="M1008.119613 520.201477c0 37.094175-30.069228 67.169445-67.165417 67.169445l0 0c-37.098202 0-67.167431-30.07527-67.167431-67.169445l0 0c0-37.096189 30.069228-67.166424 67.167431-67.166424l0 0C978.050385 453.035053 1008.119613 483.105288 1008.119613 520.201477L1008.119613 520.201477z" p-id="3756"></path></svg>